<?xml version="1.0" encoding="UTF-8"?>
<svg version="1.1" viewBox="0 0 1080 1080" width="1280" height="1280" xmlns="http://www.w3.org/2000/svg">
<path transform="translate(58,172)" d="m0 0h964l15 4 15 8 12 11 9 14 5 13 2 10v636l-4 16-7 14-11 12-7 6-10 6-15 5-7 1h-958l-14-3-12-5-11-8-10-10-8-13-5-15-1-6v-636l4-16 7-14 8-10 9-8 15-8z"/>
<path transform="translate(58,172)" d="m0 0h964l15 4 15 8 12 11 9 14 5 13 2 10v636l-4 16-7 14-11 12-7 6-10 6-15 5-7 1h-958l-14-3-12-5-11-8-10-10-8-13-5-15-1-6v-636l4-16 7-14 8-10 9-8 15-8zm4 42-9 4-7 7-4 10v630l4 9 6 7 8 4 4 1h952l9-3 8-7 4-8 1-3v-630l-4-10-7-7-9-4z" fill="#FEED00"/>
<path transform="translate(641,443)" d="m0 0 21 9 32 15 33 15 70 32 39 18 18 8 2 2v41l-14 7-68 31-26 12-105 48-3-1v-45l6-4 105-45 54-23 1-2-9-3-96-41-53-23-7-3-1-2v-45z" fill="#FEED00"/>
<path transform="translate(438,443)" d="m0 0 2 1v45l-3 3-157 69h-2l3 3 148 65 10 5 1 1v45l-3 1-34-16-26-12-32-15-33-15-38-18-28-13-20-9-2-2v-38l16-8 62-29 33-15 40-19 54-25z" fill="#FEED00"/>
<path transform="translate(569,374)" d="m0 0h45l-2 10-22 74-25 85-24 81-22 75-1 1h-45l2-9 17-58 26-88 50-170z" fill="#FEED00"/>
</svg>
